<svg width="112" height="108" viewBox="0 0 112 108" fill="none" xmlns="http://www.w3.org/2000/svg">
<g id="Image search" clip-path="url(#clip0_202_561)">
<path id="Vector" d="M84.0002 58.5V90H18.6668V27H42.0935C42.3268 23.805 43.1202 20.79 44.3335 18H18.6668C13.5335 18 9.3335 22.05 9.3335 27V90C9.3335 94.95 13.5335 99 18.6668 99H84.0002C89.1335 99 93.3335 94.95 93.3335 90V67.5L84.0002 58.5ZM77.0002 81H25.6668L38.5002 65.115L47.6468 75.735L60.4802 59.805L77.0002 81ZM90.0668 40.005C92.1202 36.855 93.3335 33.21 93.3335 29.25C93.3335 18.045 83.9535 9 72.3335 9C60.7135 9 51.3335 18.045 51.3335 29.25C51.3335 40.455 60.7135 49.5 72.2868 49.5C76.3935 49.5 80.2202 48.33 83.4402 46.35L98.0002 60.39L104.627 54L90.0668 40.005ZM72.3335 40.5C65.8935 40.5 60.6668 35.46 60.6668 29.25C60.6668 23.04 65.8935 18 72.3335 18C78.7735 18 84.0002 23.04 84.0002 29.25C84.0002 35.46 78.7735 40.5 72.3335 40.5Z" fill="#666666"/>
</g>
<defs>
<clipPath id="clip0_202_561">
<rect width="112" height="108" fill="white"/>
</clipPath>
</defs>
</svg>
